<svg width="17" height="18" viewBox="0 0 17 18" fill="none" xmlns="http://www.w3.org/2000/svg">
<path fill-rule="evenodd" clip-rule="evenodd" d="M11.8927 2.54241C11.94 2.5896 11.9775 2.64567 12.0031 2.70739C12.0288 2.76912 12.0419 2.83529 12.0419 2.90211C12.0419 2.96894 12.0288 3.03511 12.0031 3.09684C11.9775 3.15856 11.94 3.21463 11.8927 3.26182L6.15459 8.99889L11.8927 14.736C11.9881 14.8314 12.0417 14.9607 12.0417 15.0957C12.0417 15.2306 11.9881 15.36 11.8927 15.4554C11.7973 15.5508 11.6679 15.6044 11.533 15.6044C11.398 15.6044 11.2687 15.5508 11.1733 15.4554L5.07648 9.3586C5.02917 9.3114 4.99163 9.25534 4.96601 9.19361C4.9404 9.13189 4.92722 9.06572 4.92722 8.99889C4.92722 8.93206 4.9404 8.86589 4.96601 8.80416C4.99163 8.74244 5.02917 8.68637 5.07648 8.63918L11.1733 2.54241C11.2204 2.49509 11.2765 2.45755 11.3382 2.43194C11.4 2.40633 11.4661 2.39314 11.533 2.39314C11.5998 2.39314 11.666 2.40633 11.7277 2.43194C11.7894 2.45755 11.8455 2.49509 11.8927 2.54241V2.54241Z" fill="#9A55FF"/>
</svg>
