<svg width="17" height="18" viewBox="0 0 17 18" fill="none" xmlns="http://www.w3.org/2000/svg">
<path fill-rule="evenodd" clip-rule="evenodd" d="M4.89682 2.54239C4.94402 2.49508 5.00008 2.45754 5.06181 2.43192C5.12353 2.40631 5.1897 2.39313 5.25653 2.39313C5.32336 2.39313 5.38953 2.40631 5.45126 2.43192C5.51298 2.45754 5.56905 2.49508 5.61624 2.54239L11.713 8.63916C11.7603 8.68636 11.7979 8.74242 11.8235 8.80415C11.8491 8.86587 11.8623 8.93205 11.8623 8.99887C11.8623 9.0657 11.8491 9.13187 11.8235 9.1936C11.7979 9.25532 11.7603 9.31139 11.713 9.35858L5.61624 15.4554C5.52084 15.5508 5.39145 15.6044 5.25653 15.6044C5.12161 15.6044 4.99222 15.5508 4.89682 15.4554C4.80142 15.36 4.74782 15.2306 4.74782 15.0956C4.74782 14.9607 4.80142 14.8313 4.89682 14.7359L10.6349 8.99887L4.89682 3.26181C4.84951 3.21462 4.81197 3.15855 4.78636 3.09682C4.76074 3.0351 4.74756 2.96893 4.74756 2.9021C4.74756 2.83527 4.76074 2.7691 4.78636 2.70738C4.81197 2.64565 4.84951 2.58959 4.89682 2.54239V2.54239Z" fill="#9A55FF"/>
</svg>
